<svg width="128" height="128" viewBox="0 0 128 128" fill="none" xmlns="http://www.w3.org/2000/svg">
<path d="M110.715 90.3992C108.961 94.4519 106.884 98.1824 104.479 101.612C101.199 106.288 98.5141 109.524 96.4448 111.322C93.237 114.272 89.8001 115.782 86.1197 115.868C83.4775 115.868 80.2912 115.116 76.5822 113.591C72.861 112.073 69.4412 111.322 66.3143 111.322C63.0349 111.322 59.5178 112.073 55.7558 113.591C51.9881 115.116 48.9528 115.911 46.6322 115.99C43.1029 116.14 39.585 114.587 36.0736 111.322C33.8325 109.367 31.0292 106.016 27.671 101.269C24.068 96.199 21.1058 90.3205 18.7851 83.6184C16.2998 76.3794 15.0539 69.3695 15.0539 62.583C15.0539 54.8091 16.7337 48.1042 20.0983 42.4855C22.7426 37.9724 26.2605 34.4123 30.6633 31.7988C35.0662 29.1853 39.8235 27.8535 44.9466 27.7683C47.7499 27.7683 51.426 28.6354 55.9942 30.3395C60.5496 32.0494 63.4746 32.9165 64.757 32.9165C65.7157 32.9165 68.9651 31.9026 74.4735 29.8813C79.6826 28.0067 84.079 27.2305 87.6806 27.5363C97.4401 28.3239 104.772 32.1711 109.648 39.1023C100.92 44.3909 96.6023 51.7982 96.6882 61.3006C96.767 68.7022 99.4521 74.8614 104.729 79.7519C107.121 82.0217 109.792 83.776 112.763 85.0219C112.119 86.8907 111.438 88.6808 110.715 90.3992ZM88.3322 2.32066C88.3322 8.12198 86.2128 13.5387 81.9882 18.5523C76.8901 24.5125 70.7236 27.9566 64.0367 27.4131C63.9515 26.7172 63.9021 25.9847 63.9021 25.2149C63.9021 19.6457 66.3265 13.6854 70.632 8.81216C72.7815 6.34474 75.5153 4.2931 78.8305 2.65647C82.1386 1.04427 85.2676 0.15268 88.2105 0C88.2964 0.775547 88.3322 1.55114 88.3322 2.32059V2.32066Z" fill="white"/>
</svg>
