<svg width="128" height="128" viewBox="0 0 128 128" fill="none" xmlns="http://www.w3.org/2000/svg">
<path d="M120 64.9223C120 61.0736 119.688 57.204 119.022 53.4177H65.6183V75.2203H96.2002C94.9312 82.2521 90.8536 88.4725 84.8828 92.4253V106.572H103.128C113.842 96.7109 120 82.1481 120 64.9223Z" fill="#4285F4"/>
<path d="M65.6183 120.24C80.8885 120.24 93.7662 115.226 103.149 106.572L84.9036 92.4252C79.8274 95.8787 73.2742 97.8343 65.6391 97.8343C50.8682 97.8343 38.3442 87.8691 33.8505 74.4713H15.0228V89.055C24.6343 108.174 44.2109 120.24 65.6183 120.24V120.24Z" fill="#34A853"/>
<path d="M33.8296 74.4714C31.458 67.4396 31.458 59.8253 33.8296 52.7935V38.2099H15.0228C6.99241 54.2082 6.99241 73.0567 15.0228 89.055L33.8296 74.4714V74.4714Z" fill="#FBBC04"/>
<path d="M65.6183 29.4098C73.6903 29.285 81.4918 32.3223 87.3377 37.8978L103.502 21.7331C93.2669 12.1216 79.6818 6.83738 65.6183 7.00382C44.2109 7.00382 24.6343 19.0702 15.0228 38.2099L33.8297 52.7935C38.3026 39.3749 50.8474 29.4098 65.6183 29.4098V29.4098Z" fill="#EA4335"/>
</svg>
