<?xml version="1.0" encoding="utf-8"?>
<!-- Svg Vector Icons : http://www.onlinewebfonts.com/icon -->
<!DOCTYPE svg PUBLIC "-//W3C//DTD SVG 1.1//EN" "http://www.w3.org/Graphics/SVG/1.1/DTD/svg11.dtd">
<svg version="1.1" xmlns="http://www.w3.org/2000/svg" xmlns:xlink="http://www.w3.org/1999/xlink" x="0px" y="0px" viewBox="0 0 1000 1000" enable-background="new 0 0 1000 1000" xml:space="preserve">
<metadata> Svg Vector Icons : http://www.onlinewebfonts.com/icon </metadata>
<g><path d="M431.5,769.8c0,32.9,27,59.7,60.2,59.7c33.2,0,60.2-26.8,60.2-59.7s-27-59.7-60.2-59.7C458.5,710.2,431.5,736.9,431.5,769.8z M728.1,716.9c0,13.3,10.7,24.1,24.1,24.1c13.3,0,24.1-10.7,24.1-24.1c0-13.3-10.7-24.1-24.1-24.1C738.9,692.8,728.1,703.5,728.1,716.9z M728.1,475.8v144.7c0,13.3,10.7,24,24.1,24c13.3,0,24.1-10.9,24.1-24V475.8c0-13.3-10.7-24-24.1-24C738.9,451.8,728.1,462.7,728.1,475.8z M564.3,595.6c0-104.2,84.5-188.8,188.8-188.8c104.3,0,188.8,84.5,188.8,188.8c0,104.3-84.5,188.8-188.8,188.8C648.8,784.4,564.3,699.9,564.3,595.6z M140.8,499.2c-10.5,13-8.6,32.1,4.3,42.7c12.9,10.6,31.9,8.6,42.4-4.4c74.1-91.6,185-144.1,304.2-144.1c36.8,0,72.7,5,107.1,14.6c-31.8,25.4-57.1,58.7-72.8,97c-11.3-1.4-22.7-2.1-34.3-2.1c-91.8,0-176.9,44.9-227.7,120.2c-9.3,13.8-5.8,32.7,8,42.1c5.2,3.6,11.1,5.2,16.9,5.2c9.6,0,19.1-4.6,24.9-13.3c39.6-58.7,106.1-93.6,177.9-93.6c6.2,0,12.4,0.3,18.5,0.8c-1.4,10.5-2.1,21.3-2.1,32.2c0,133.1,107.9,241,241,241s241-107.9,241-241c0-133.1-107.9-241-241-241c-27.7,0-54.4,4.7-79.2,13.3c-55.4-23.5-115.8-36-178.1-36C354.3,332.7,226.4,393.4,140.8,499.2z M17.4,377.4c-10.9,12.6-9.7,31.8,2.9,42.8c12.5,11.1,31.6,9.8,42.5-2.9c107-123.3,263.3-194.1,428.9-194.1c165.6,0,322,70.8,428.9,194.1c6,6.9,14.3,10.4,22.7,10.4c7,0,14.1-2.5,19.8-7.5c12.5-11,13.8-30.1,2.9-42.8C847.6,240.9,674.7,162.6,491.7,162.6C308.7,162.6,135.9,240.9,17.4,377.4z"/></g>
</svg>